<svg width="20" height="18" viewBox="0 0 20 18" fill="none" xmlns="http://www.w3.org/2000/svg">
<path d="M5.34904 17.8087H1.27341C1.05094 17.8085 0.832422 17.75 0.639553 17.6391C0.446684 17.5282 0.286182 17.3688 0.173994 17.1767C0.0618049 16.9846 0.0018347 16.7665 4.14335e-05 16.5441C-0.00175184 16.3216 0.0546942 16.1025 0.163771 15.9087L8.66148 0.772767C8.71882 0.668687 8.79022 0.572996 8.87366 0.488391C8.95372 0.408697 9.04428 0.340297 9.14283 0.285085C9.33463 0.178495 9.55043 0.122559 9.76985 0.122559C9.98928 0.122559 10.2051 0.178495 10.3969 0.285085C10.4952 0.340312 10.5856 0.408713 10.6654 0.488391C10.7519 0.572345 10.8261 0.66808 10.8858 0.772767L19.3848 15.9068C19.494 16.1008 19.5504 16.32 19.5485 16.5426C19.5466 16.7653 19.4865 16.9835 19.3741 17.1757C19.2617 17.3678 19.1009 17.5272 18.9078 17.6379C18.7147 17.7487 18.4959 17.8069 18.2733 17.8068H14.2008C13.7774 17.0031 13.1398 16.3321 12.3587 15.8684C11.5775 15.4046 10.6833 15.166 9.77492 15.179C8.8667 15.1659 7.97256 15.4044 7.19144 15.8679C6.41031 16.3315 5.77266 17.0021 5.34904 17.8056V17.8087Z" fill="#3E3E3E"/>
<path opacity="0.27" d="M8.69922 11.786L9.84685 10.3413H10.4428L9.38324 11.7854L8.69922 11.786Z" fill="#313335"/>
<path opacity="0.22" d="M9.60372 8.1958H11.3967L10.8901 8.82915L9.14453 8.78609L9.60372 8.1958Z" fill="url(#paint0_linear_21130_1150)"/>
<path d="M9.61271 8.2002L7.63031 10.714C7.53407 10.8161 7.48047 10.9511 7.48047 11.0914C7.48047 11.2318 7.53407 11.3668 7.63031 11.4689C7.74421 11.5967 7.88754 11.6948 8.04789 11.7548C8.20825 11.8147 8.38079 11.8346 8.55058 11.8128L9.9845 10.0445L11.4083 8.2002H9.61271Z" fill="#FFD650"/>
<path d="M9.85098 10.3516H11.4825C11.4825 10.3516 11.9607 10.4681 12.0848 10.755C12.1561 10.9462 12.1561 11.1567 12.0848 11.3478C12.0848 11.3478 11.922 11.7874 11.5401 11.7874H8.71094L9.85098 10.3516Z" fill="#FFD650"/>
<path d="M8.27398 6.75391H11.1032C11.2774 6.75391 11.4444 6.82311 11.5676 6.94628C11.6908 7.06945 11.76 7.23651 11.76 7.4107C11.76 7.49695 11.743 7.58235 11.71 7.66204C11.677 7.74172 11.6286 7.81413 11.5676 7.87511C11.5066 7.9361 11.4342 7.98448 11.3545 8.01749C11.2748 8.05049 11.1894 8.06749 11.1032 8.06749H8.27398C8.18773 8.06749 8.10232 8.05049 8.02263 8.01749C7.94295 7.98448 7.87054 7.9361 7.80955 7.87511C7.74857 7.81413 7.70019 7.74172 7.66718 7.66204C7.63417 7.58235 7.61719 7.49695 7.61719 7.4107C7.61719 7.23651 7.68638 7.06945 7.80955 6.94628C7.93273 6.82311 8.09979 6.75391 8.27398 6.75391Z" fill="#FFD650"/>
<defs>
<linearGradient id="paint0_linear_21130_1150" x1="-28.4245" y1="37.0444" x2="-28.4245" y2="36.9912" gradientUnits="userSpaceOnUse">
<stop stop-color="#A7ACAD"/>
<stop offset="1" stop-color="white"/>
</linearGradient>
</defs>
</svg>
