<svg width="56" height="56" viewBox="0 0 56 56" fill="none" xmlns="http://www.w3.org/2000/svg">
<path d="M49.6641 19.1727C49.6799 18.457 49.5065 17.7497 49.1612 17.1215C48.8032 16.5143 48.2873 16.0143 47.6676 15.6741C42.1742 12.5202 36.6789 9.37072 31.1816 6.22562C29.7014 5.37456 28.2667 5.40475 26.7959 6.26902C24.6097 7.54656 13.6614 13.7908 10.3991 15.6722C9.05549 16.4459 8.40266 17.631 8.40266 19.1708V38.1924C8.38879 38.893 8.55538 39.5855 8.88659 40.204C9.24465 40.8297 9.77019 41.3444 10.4048 41.691C13.6671 43.578 24.6172 49.8148 26.8035 51.098C28.2743 51.9622 29.709 51.9924 31.1911 51.1414C36.6833 47.9862 42.1786 44.8355 47.6771 41.6891C48.3117 41.3426 48.8373 40.8278 49.1953 40.2021C49.5265 39.5836 49.6931 38.8911 49.6792 38.1905V19.1727H49.6641Z" fill="#004482"/>
<path d="M49.6677 38.1924C49.682 38.893 49.5154 39.5856 49.1838 40.204C49.1024 40.3513 49.0104 40.4925 48.9086 40.6267L29.0332 28.6816L47.6674 15.6741C48.2865 16.0144 48.8019 16.5144 49.1591 17.1215C49.5059 17.7492 49.68 18.4567 49.6639 19.1727C49.6677 25.5132 49.6677 38.1924 49.6677 38.1924Z" fill="#00599C"/>
<path d="M49.1593 17.1215L8.88096 40.204C8.55123 39.5857 8.38595 38.8939 8.40082 38.1943V19.1708C8.40082 17.631 9.05556 16.4459 10.3973 15.6722C13.6615 13.7908 24.6097 7.54656 26.7979 6.26525C28.2648 5.40097 29.7014 5.37078 31.1817 6.22184C36.6739 9.377 42.1692 12.5278 47.6677 15.6741C48.2868 16.0144 48.8021 16.5144 49.1593 17.1215Z" fill="#659AD2"/>
<path d="M29.8306 36.3657C28.4744 36.3676 27.1425 36.0073 25.9741 35.3225C24.8057 34.6377 23.8436 33.6535 23.1884 32.4727C23.1214 32.3544 23.0581 32.2337 22.9986 32.1104C22.1902 30.4502 22.0222 28.553 22.5262 26.7779C23.0302 25.0028 24.1714 23.4731 25.7336 22.4785C27.2958 21.4839 29.1706 21.0935 31.0029 21.3811C32.8352 21.6688 34.4978 22.6146 35.6758 24.0394C35.7764 24.1602 35.8656 24.2866 35.9661 24.4169C36.0117 24.4791 36.0572 24.5414 36.099 24.6056L42.7545 20.7937C42.5925 20.5345 42.423 20.2829 42.2459 20.0389C42.1529 19.9087 42.0561 19.7841 41.965 19.6615C39.6517 16.6733 36.2963 14.6555 32.5606 14.0061C28.8248 13.3567 24.98 14.1229 21.7843 16.1534C18.5887 18.184 16.2743 21.3316 15.2976 24.9754C14.321 28.6192 14.7529 32.4946 16.5083 35.8373C16.5728 35.9581 16.6392 36.077 16.698 36.1959C17.9872 38.4576 19.8426 40.3495 22.084 41.6879C24.3254 43.0264 26.8768 43.7658 29.4904 43.8346C32.104 43.9033 34.6911 43.299 37.0006 42.0803C39.31 40.8615 41.2633 39.0698 42.671 36.879L36.1635 32.9671C35.4745 34.0117 34.5349 34.8694 33.4293 35.4627C32.3237 36.0561 31.087 36.3664 29.8306 36.3657Z" fill="white"/>
</svg>
