<svg width="56" height="56" viewBox="0 0 56 56" fill="none" xmlns="http://www.w3.org/2000/svg">
<g id="c 1">
<g id="Group 26086783">
<path id="Vector" d="M50.5928 17.5733C50.5924 16.7283 50.4095 15.9817 50.0394 15.341C49.6759 14.7109 49.1316 14.1828 48.4015 13.7652C42.3745 10.3333 36.3416 6.9118 30.3166 3.47635C28.6923 2.55027 27.1174 2.58403 25.5051 3.5234C23.1062 4.92057 11.0956 11.7161 7.51656 13.7633C6.04263 14.6059 5.32541 15.8955 5.32506 17.5717C5.32275 24.4735 5.32506 31.3752 5.32275 38.2773C5.32311 39.1036 5.49829 39.8357 5.85203 40.4669C6.21569 41.116 6.76764 41.6587 7.51461 42.0857C11.0938 44.1329 23.106 50.9279 25.5044 52.3254C27.1174 53.2653 28.6923 53.2989 30.3171 52.3724C36.3423 48.9368 42.3755 45.5155 48.4034 42.0836C49.1504 41.6567 49.7023 41.1138 50.066 40.4651C50.4192 39.834 50.5947 39.1019 50.5951 38.2753C50.5951 38.2753 50.5951 24.4753 50.5928 17.5733Z" fill="#5C8DBC"/>
<path id="Vector_2" d="M28.0282 27.8572L5.85205 40.4669C6.21571 41.116 6.76766 41.6587 7.51463 42.0857C11.0938 44.1329 23.106 50.9278 25.5044 52.3254C27.1174 53.2653 28.6923 53.2988 30.3171 52.3724C36.3424 48.9368 42.3756 45.5155 48.4034 42.0836C49.1504 41.6567 49.7024 41.1137 50.066 40.4651L28.0282 27.8572Z" fill="#1A4674"/>
<path id="Vector_3" d="M21.46 31.5923C22.7504 33.8171 25.1762 35.3176 27.959 35.3176C30.759 35.3176 33.1987 33.798 34.4825 31.5495L28.0283 27.8572L21.46 31.5923Z" fill="#1A4674"/>
<path id="Vector_4" d="M50.5929 17.5732C50.5926 16.7283 50.4096 15.9817 50.0396 15.341L28.0283 27.8572L50.0661 40.4651C50.4193 39.834 50.5949 39.1019 50.5952 38.2753C50.5952 38.2753 50.5952 24.4753 50.5929 17.5732Z" fill="#1B598E"/>
<path id="Vector_5" d="M49.3811 28.7584H47.659V30.4595H45.9366V28.7584H44.2146V27.0579H45.9366V25.3573H47.659V27.0579H49.3811V28.7584ZM43.0973 28.7584H41.3754V30.4595H39.6533V28.7584H37.9312V27.0579H39.6533V25.3573H41.3754V27.0579H43.0973V28.7584Z" fill="white"/>
<path id="Vector_6" d="M34.4826 31.5494C33.1987 33.798 30.759 35.3176 27.9591 35.3176C25.1763 35.3176 22.7504 33.8171 21.46 31.5923C20.8118 30.476 20.4713 29.2112 20.4727 27.9244C20.4727 23.8413 23.8246 20.5313 27.9591 20.5313C30.724 20.5313 33.1371 22.0131 34.4339 24.2152L40.9774 20.494C38.3765 16.0603 33.5207 13.0774 27.9591 13.0774C19.6557 13.0774 12.9248 19.7247 12.9248 27.9244C12.9248 30.6144 13.6495 33.1371 14.916 35.3131C17.5103 39.7703 22.3799 42.7716 27.9591 42.7716C33.5485 42.7716 38.4258 39.7582 41.0164 35.2879L34.4826 31.5494Z" fill="white"/>
</g>
</g>
</svg>
