<svg width="24" height="24" viewBox="0 0 24 24" fill="none" xmlns="http://www.w3.org/2000/svg">
<path d="M21.2 11.5H17V10H17.2H17.4C19.4 9.9 20.9 8.2 20.9 6.2V4.7C21 4.3 20.6 4 20.2 4C19.8 4 19.4 4.3 19.4 4.8V6.3C19.4 7.5 18.4 8.5 17.2 8.6H17C16.9 7.1 15.9 5.8 14.5 5.3C14.8 4.7 15 4.1 15 3.5V2.8V2.7C15 2.3 14.6 2 14.3 2C13.9 2 13.5 2.3 13.5 2.8V3.6V3.8C13.4 4.4 12.8 5 12 5C11.2 5 10.5 4.3 10.5 3.5V2.8V2.7C10.5 2.3 10.1 2 9.8 2C9.3 2 9 2.3 9 2.8V3.6V3.8C9 4.4 9.2 4.9 9.5 5.3C8.1 5.7 7.1 7 7 8.5H6.7H6.6C5.4 8.4 4.5 7.4 4.5 6.2V4.7V4.6C4.5 4.3 4.1 4 3.8 4C3.3 4 3 4.3 3 4.8V6.3V6.5C3.1 8.3 4.6 9.9 6.5 10H6.7H7V11.5H2.8H2.7C2.3 11.5 2 11.9 2 12.2V12.3C2 12.7 2.4 13 2.7 13H7V15H6.8H6.6C4.6 15.1 3.1 16.8 3.1 18.8V20.3C3 20.7 3.3 21 3.8 21C4.2 21 4.6 20.7 4.6 20.2V18.7C4.6 17.5 5.6 16.4 6.8 16.4H7.3C7.9 18.4 9.8 19.9 12.1 19.9C14.4 19.9 16.2 18.4 16.9 16.4H17.4H17.6C18.8 16.5 19.7 17.5 19.7 18.6V20.1V20.2C19.7 20.6 20.1 20.9 20.4 20.9C20.8 20.9 21.2 20.6 21.2 20.1V18.6V18.4C21.1 16.5 19.6 14.9 17.7 14.8H17.5H17V12.8H21.2H21.3C21.7 12.8 22 12.4 22 12.1V12C22 11.8 21.6 11.5 21.2 11.5ZM15.5 15C15.5 16.9 13.9 18.5 12 18.5C11 18.5 10.2 18.1 9.5 17.5C8.9 16.9 8.5 16 8.5 15V9C8.5 7.6 9.6 6.5 11 6.5H13C14.4 6.5 15.5 7.6 15.5 9V15Z" fill="#787878"/>
</svg>
