<svg width="24" height="24" viewBox="0 0 24 24" fill="none" xmlns="http://www.w3.org/2000/svg">
<path d="M20.3619 9.43681C19.9983 8.09135 18.6165 7.27317 17.2711 7.61863C16.4711 6.03681 15.1257 4.85499 13.4713 4.27317C11.8532 3.72772 10.1441 3.78226 8.59875 4.45499C8.12604 3.90953 7.41698 3.5459 6.63519 3.5459C5.23525 3.5459 4.08984 4.69135 4.08984 6.09135C4.08984 6.83681 4.4171 7.50953 4.94435 7.98226C4.16257 9.60044 4.05348 11.4004 4.65346 13.0914C5.25343 14.8004 6.48974 16.1641 8.12604 16.9641C7.94423 18.2368 8.72601 19.4732 9.98051 19.8186C10.1987 19.8732 10.4169 19.9095 10.6532 19.9095C11.0895 19.9095 11.5259 19.8004 11.9077 19.5823C12.4895 19.255 12.9258 18.6914 13.0895 18.0368C13.144 17.8368 13.1622 17.6368 13.1804 17.4368C15.5075 16.7823 17.3257 14.9641 17.962 12.6368C18.162 12.6368 18.362 12.6004 18.562 12.5459C19.2165 12.3823 19.7801 11.9459 20.1074 11.3641C20.4528 10.7823 20.5437 10.0914 20.3619 9.43681ZM4.81709 6.09135C4.81709 5.09135 5.63523 4.27317 6.63519 4.27317C7.23517 4.27317 7.76242 4.56408 8.10786 5.01863L8.21694 5.21863C8.36239 5.47317 8.4533 5.78226 8.4533 6.10953C8.4533 7.10953 7.63515 7.92772 6.63519 7.92772C5.63523 7.92772 4.81709 7.09135 4.81709 6.09135ZM12.3986 17.8368C12.2713 18.2914 11.9622 18.6914 11.5623 18.9277C11.1441 19.1641 10.6532 19.2368 10.1805 19.1095C9.2169 18.855 8.63511 17.8368 8.88964 16.8732C9.01691 16.4186 9.32599 16.0186 9.72597 15.7823C10.1441 15.5459 10.635 15.4732 11.1077 15.6004C12.0713 15.8732 12.6531 16.8732 12.3986 17.8368ZM13.0895 16.6914C12.8531 15.855 12.1986 15.1459 11.2895 14.9095C10.635 14.7277 9.94414 14.8186 9.36235 15.1459C8.90782 15.4004 8.56238 15.8004 8.34421 16.255C6.90791 15.5459 5.85341 14.3459 5.32616 12.855C4.81709 11.3823 4.88981 9.80044 5.54433 8.38226C5.87159 8.5459 6.23521 8.63681 6.63519 8.63681C8.03513 8.63681 9.18054 7.49135 9.18054 6.09135C9.18054 5.72772 9.10782 5.40044 8.98055 5.09135C10.3259 4.52772 11.8168 4.49135 13.2167 4.96408C14.6894 5.47317 15.8712 6.50953 16.5984 7.90953C16.2348 8.12772 15.9257 8.43681 15.7075 8.81863C15.3803 9.40044 15.2894 10.1095 15.453 10.7459C15.6894 11.655 16.3984 12.3095 17.2347 12.5459C16.653 14.5459 15.0894 16.1095 13.0895 16.6914ZM19.4892 11.0004C19.2528 11.4186 18.8529 11.7277 18.3983 11.8368C17.4347 12.0914 16.4348 11.5095 16.1621 10.5459C16.0348 10.0914 16.1075 9.58226 16.3439 9.16408C16.5802 8.7459 16.9802 8.43681 17.4347 8.32772C17.5802 8.29135 17.7438 8.27317 17.8893 8.27317C18.6892 8.27317 19.4347 8.81863 19.6528 9.63681C19.7801 10.0914 19.7256 10.6004 19.4892 11.0004Z" stroke="#787878" stroke-width="0.9" stroke-linecap="round" stroke-linejoin="round"/>
</svg>
