<svg width="24" height="24" viewBox="0 0 24 24" fill="none" xmlns="http://www.w3.org/2000/svg">
<path d="M8.66924 13.998H3.99977C2.8999 13.998 2 14.8979 2 15.9978V21.9971H8.66924V13.998Z" stroke="#69758B" stroke-width="1.5" stroke-miterlimit="10" stroke-linecap="round" stroke-linejoin="round"/>
<path d="M13.3287 9.99902H10.659C9.55908 9.99902 8.65918 10.8989 8.65918 11.9988V21.9977H15.3284V11.9988C15.3284 10.8989 14.4385 9.99902 13.3287 9.99902Z" stroke="#69758B" stroke-width="1.5" stroke-miterlimit="10" stroke-linecap="round" stroke-linejoin="round"/>
<path d="M19.9976 16.998H15.3281V21.9975H21.9974V18.9978C21.9974 17.8979 21.0975 16.998 19.9976 16.998Z" stroke="#69758B" stroke-width="1.5" stroke-miterlimit="10" stroke-linecap="round" stroke-linejoin="round"/>
<path d="M12.5184 2.06977L13.0483 3.12965C13.1183 3.27963 13.3083 3.41962 13.4683 3.43961L14.4281 3.5996C15.0381 3.69959 15.1881 4.14952 14.7481 4.57947L13.9982 5.32938C13.8682 5.45937 13.7982 5.69935 13.8382 5.86933L14.0482 6.78924C14.2182 7.51916 13.8282 7.79913 13.1883 7.41917L12.2884 6.88923C12.1284 6.78925 11.8584 6.78925 11.6985 6.88923L10.7986 7.41917C10.1586 7.79913 9.76868 7.51916 9.93866 6.78924L10.1486 5.86933C10.1886 5.69935 10.1186 5.44937 9.98865 5.32938L9.24874 4.58948C8.80879 4.14953 8.94877 3.70957 9.5687 3.60958L10.5286 3.44962C10.6886 3.41963 10.8786 3.27964 10.9485 3.13966L11.4785 2.07975C11.7684 1.49982 12.2284 1.49984 12.5184 2.06977Z" stroke="#69758B" stroke-width="1.5" stroke-linecap="round" stroke-linejoin="round"/>
</svg>
