<svg width="24" height="24" viewBox="0 0 24 24" fill="none" xmlns="http://www.w3.org/2000/svg">
<path d="M4 6.00075C4 5.47038 4.21069 4.96173 4.58572 4.5867C4.96075 4.21167 5.4694 4.00098 5.99977 4.00098H7.99955C8.52992 4.00098 9.03857 4.21167 9.4136 4.5867C9.78863 4.96173 9.99932 5.47038 9.99932 6.00075V8.00052C9.99932 8.53089 9.78863 9.03954 9.4136 9.41457C9.03857 9.7896 8.52992 10.0003 7.99955 10.0003H5.99977C5.4694 10.0003 4.96075 9.7896 4.58572 9.41457C4.21069 9.03954 4 8.53089 4 8.00052V6.00075ZM13.9989 6.00075C13.9989 5.47038 14.2096 4.96173 14.5846 4.5867C14.9596 4.21167 15.4683 4.00098 15.9986 4.00098H17.9984C18.5288 4.00098 19.0374 4.21167 19.4125 4.5867C19.7875 4.96173 19.9982 5.47038 19.9982 6.00075V8.00052C19.9982 8.53089 19.7875 9.03954 19.4125 9.41457C19.0374 9.7896 18.5288 10.0003 17.9984 10.0003H15.9986C15.4683 10.0003 14.9596 9.7896 14.5846 9.41457C14.2096 9.03954 13.9989 8.53089 13.9989 8.00052V6.00075ZM4 15.9996C4 15.4692 4.21069 14.9606 4.58572 14.5856C4.96075 14.2105 5.4694 13.9998 5.99977 13.9998H7.99955C8.52992 13.9998 9.03857 14.2105 9.4136 14.5856C9.78863 14.9606 9.99932 15.4692 9.99932 15.9996V17.9994C9.99932 18.5298 9.78863 19.0384 9.4136 19.4134C9.03857 19.7885 8.52992 19.9992 7.99955 19.9992H5.99977C5.4694 19.9992 4.96075 19.7885 4.58572 19.4134C4.21069 19.0384 4 18.5298 4 17.9994V15.9996ZM13.9989 15.9996C13.9989 15.4692 14.2096 14.9606 14.5846 14.5856C14.9596 14.2105 15.4683 13.9998 15.9986 13.9998H17.9984C18.5288 13.9998 19.0374 14.2105 19.4125 14.5856C19.7875 14.9606 19.9982 15.4692 19.9982 15.9996V17.9994C19.9982 18.5298 19.7875 19.0384 19.4125 19.4134C19.0374 19.7885 18.5288 19.9992 17.9984 19.9992H15.9986C15.4683 19.9992 14.9596 19.7885 14.5846 19.4134C14.2096 19.0384 13.9989 18.5298 13.9989 17.9994V15.9996Z" stroke="#787878" stroke-width="1.5" stroke-linecap="round" stroke-linejoin="round"/>
</svg>
