<svg width="24" height="24" viewBox="0 0 24 24" fill="none" xmlns="http://www.w3.org/2000/svg">
<path d="M21 13.254C18.1405 14.4103 15.0844 15.0028 12 14.999C8.817 14.999 5.78 14.379 3 13.254M16 5.99902V3.99902C16 3.46859 15.7893 2.95988 15.4142 2.58481C15.0391 2.20974 14.5304 1.99902 14 1.99902H10C9.46957 1.99902 8.96086 2.20974 8.58579 2.58481C8.21071 2.95988 8 3.46859 8 3.99902V5.99902M12 11.999H12.01M5 19.999H19C19.5304 19.999 20.0391 19.7883 20.4142 19.4132C20.7893 19.0382 21 18.5295 21 17.999V7.99902C21 7.46859 20.7893 6.95988 20.4142 6.58481C20.0391 6.20974 19.5304 5.99902 19 5.99902H5C4.46957 5.99902 3.96086 6.20974 3.58579 6.58481C3.21071 6.95988 3 7.46859 3 7.99902V17.999C3 18.5295 3.21071 19.0382 3.58579 19.4132C3.96086 19.7883 4.46957 19.999 5 19.999Z" stroke="#787878" stroke-width="1.5" stroke-linecap="round" stroke-linejoin="round"/>
</svg>
