<svg width="24" height="24" viewBox="0 0 24 24" fill="none" xmlns="http://www.w3.org/2000/svg">
<path d="M19.7 5.20005C18.7 4.80005 18.6 4.30005 18.7 3.40005C18.8 2.60005 18.5 2.30005 17.7 2.30005C14.3 2.30005 11 2.30005 7.59997 2.30005C7.09997 2.30005 6.59997 2.30005 6.09997 2.30005C5.59997 2.30005 5.39997 2.60005 5.39997 3.10005C5.39997 3.50005 5.39997 3.90005 5.39997 4.30005C5.39997 4.70005 5.29997 4.80005 4.99997 4.90005C3.09997 5.50005 2.09997 7.20005 2.39997 9.00005C2.69997 10.8 4.29997 12.1 6.09997 12C6.59997 12 6.89997 12.1 7.09997 12.6C7.69997 13.9 8.59997 14.9 9.89997 15.5C10.1 15.6 10.1 15.7 10.1 15.9C10.1 16.5 10.1 17.1 10.1 17.6C10.1 18 9.99997 18.1 9.69997 18.1C8.49997 18.2 7.59997 18.8 6.69997 19.5C6.39997 19.8 6.09997 20.0001 5.79997 20.2001C5.49997 20.4001 5.19997 20.7 5.39997 21.1C5.49997 21.5 5.89997 21.5 6.29997 21.5C8.19997 21.5 10.1 21.5 12 21.5C14 21.5 15.9 21.5 17.9 21.5C18.3 21.5 18.6 21.4 18.7 21C18.8 20.6 18.6 20.4 18.3 20.1C17 19.2 15.9 18 14.2 17.9C14 17.9 13.9 17.8 13.9 17.5C13.9 16.9 13.9 16.2 13.9 15.6C13.9 15.4 13.9 15.3 14.1 15.2C15.4 14.7 16.3 13.7 16.9 12.4C17.2 11.9 17.4 11.7 18 11.7C19.7 11.8 21.1 10.6 21.6 9.00005C22 7.70005 21.3 5.80005 19.7 5.20005ZM5.79997 10.7C4.59997 10.7 3.69997 9.80005 3.59997 8.60005C3.49997 7.50005 4.29997 6.40005 5.39997 6.20005C5.59997 7.70005 5.79997 9.10005 6.19997 10.5C6.29997 10.9 5.99997 10.7 5.79997 10.7ZM16.1 11.3C15.8 12.1 15.4 12.8 14.8 13.5C14.4 13.9 13.9 14.3 13.2 14.3C12.8 14.3 12.6 14.6 12.6 15C12.6 16 12.6 17 12.6 18.1C12.6 18.8 13 19.2 13.7 19.4C14.3 19.6 15 19.6 15.6 20C15.7 20.1 15.8 20.2 16 20.3H8.09997C8.39997 20 8.69997 19.8 8.99997 19.8C9.39997 19.7 9.89997 19.6 10.3 19.5C11.1 19.3 11.4 18.9 11.4 18.1C11.4 17.1 11.4 16.2 11.4 15.2C11.4 14.6 11.2 14.4 10.6 14.3C9.89997 14.2 9.39997 13.8 8.99997 13.3C7.89997 12 7.39997 10.3 6.99997 8.70005C6.79997 7.20005 6.79997 5.70005 6.69997 4.10005C6.69997 3.80005 6.79997 3.70005 7.09997 3.70005C10.4 3.70005 13.6 3.70005 16.9 3.70005C17.1 3.70005 17.3 3.70005 17.3 4.00005C17.2 6.50005 17 9.00005 16.1 11.3ZM18.2 10.7C17.9 10.7 17.7 10.7 17.8 10.3C18.2 9.10005 18.4 7.80005 18.5 6.50005C18.5 6.10005 18.7 6.10005 19 6.20005C19.8 6.60005 20.4 7.40005 20.4 8.40005C20.4 9.70005 19.4 10.7 18.2 10.7Z" fill="#787878"/>
</svg>
