<svg width="25" height="34" viewBox="0 0 25 34" fill="none" xmlns="http://www.w3.org/2000/svg">
<path fill-rule="evenodd" clip-rule="evenodd" d="M24.0488 21.8009C23.7811 28.1947 18.5151 33.2966 12.0555 33.2966C5.42465 33.2966 0.0493248 27.7405 0.0493248 21.2904C0.0493248 20.4282 0.03387 18.7052 1.32658 15.7982C2.10021 14.0584 2.58544 12.9655 2.85929 11.9664C3.00975 11.4173 3.30236 10.545 4.13654 11.9664C4.62841 12.8045 4.64744 14.01 4.64744 14.01C4.64744 14.01 6.47749 12.6057 7.71285 9.9228C9.52387 5.98975 8.07891 3.63871 7.58513 2.00382C7.41423 1.43826 7.30694 0.421816 8.47921 0.854295C9.67369 1.29508 12.8316 3.50562 14.4823 5.83559C16.8382 9.16092 17.6754 12.3496 17.6754 12.3496C17.6754 12.3496 18.4298 11.4134 18.6972 10.4337C18.9993 9.32747 19.0038 8.23185 19.9744 9.41203C20.8974 10.5344 22.2683 12.6435 23.0399 14.6486C24.4409 18.29 24.0488 21.8009 24.0488 21.8009Z" fill="url(#paint0_linear_16254_1122)"/>
<path fill-rule="evenodd" clip-rule="evenodd" d="M12.0558 33.2966C7.4706 33.2966 3.75366 29.5796 3.75366 24.9944C3.75366 22.2277 4.86858 20.548 7.18897 18.2702C8.67467 16.8117 10.0652 15.0203 10.6562 13.8005C10.7726 13.5604 11.0373 12.3091 12.0582 13.7742C12.5938 14.5426 13.4333 15.9092 13.9717 17.0754C14.8998 19.0862 15.1212 21.0349 15.1212 21.0349C15.1212 21.0349 16.0308 20.499 16.6539 19.119C16.8548 18.6743 17.261 16.9906 18.3965 18.674C19.2296 19.9094 20.3742 22.1305 20.358 24.9944C20.358 29.5796 16.6409 33.2966 12.0558 33.2966Z" fill="url(#paint1_linear_16254_1122)"/>
<path fill-rule="evenodd" clip-rule="evenodd" d="M12.1832 24.2281C13.3646 24.2281 13.3646 26.4159 14.8654 29.3371C15.8647 31.2822 14.37 33.2966 12.1832 33.2966C9.99638 33.2966 8.8623 31.5239 8.8623 29.3371C8.8623 27.1504 11.0017 24.2281 12.1832 24.2281Z" fill="url(#paint2_linear_16254_1122)"/>
<defs>
<linearGradient id="paint0_linear_16254_1122" x1="12.0735" y1="33.3206" x2="12.0735" y2="0.774594" gradientUnits="userSpaceOnUse">
<stop stop-color="#BD3100"/>
<stop offset="1" stop-color="#FFB243"/>
</linearGradient>
<linearGradient id="paint1_linear_16254_1122" x1="12.0559" y1="13.0741" x2="12.0559" y2="33.2966" gradientUnits="userSpaceOnUse">
<stop stop-color="#FFC879"/>
<stop offset="1" stop-color="#FC9502"/>
</linearGradient>
<linearGradient id="paint2_linear_16254_1122" x1="12.0222" y1="24.2281" x2="12.0222" y2="33.2966" gradientUnits="userSpaceOnUse">
<stop stop-color="#FFF499"/>
<stop offset="1" stop-color="#FCE202"/>
</linearGradient>
</defs>
</svg>
