<svg width="56" height="56" viewBox="0 0 56 56" fill="none" xmlns="http://www.w3.org/2000/svg">
<g id="logos:java">
<g id="Group 26086781">
<path id="Vector" d="M20.5768 42.6528C20.5768 42.6528 18.4911 43.7325 22.0612 44.0979C26.3863 44.537 28.5967 44.4742 33.3631 43.671C33.3631 43.671 34.6163 44.3705 36.3662 44.9764C25.6815 49.0527 12.1843 44.7402 20.5768 42.6528ZM19.2711 37.3333C19.2711 37.3333 16.9318 38.8749 20.5045 39.2038C25.1248 39.628 28.7734 39.6628 35.0871 38.5806C35.0871 38.5806 35.9604 39.3686 37.3335 39.7997C24.4149 43.1624 10.0259 40.0648 19.2711 37.3333Z" fill="#5382A1"/>
<path id="Vector_2" d="M30.3139 27.4758C32.8366 30.208 29.6511 32.6667 29.6511 32.6667C29.6511 32.6667 36.0565 29.556 33.1148 25.6606C30.3673 22.0281 28.2602 20.223 39.6667 14C39.6667 14 21.7624 18.2067 30.3139 27.4758Z" fill="#E76F00"/>
<path id="Vector_3" d="M43.4802 46.3372C43.4802 46.3372 44.9126 47.5264 41.9027 48.4464C36.1796 50.1936 18.0823 50.7212 13.0549 48.516C11.2477 47.724 14.6368 46.6245 15.7028 46.3937C16.8145 46.1508 17.4499 46.1961 17.4499 46.1961C15.4401 44.7693 4.45936 48.9975 11.8723 50.2082C32.0883 53.5119 48.724 48.7207 43.4802 46.3372ZM22.2948 30.8264C22.2948 30.8264 13.0895 33.0298 19.0351 33.8297C21.5454 34.1684 26.5498 34.0918 31.2113 33.6981C35.021 33.3745 38.8463 32.6859 38.8463 32.6859C38.8463 32.6859 37.503 33.2656 36.5311 33.9343C27.1832 36.4117 9.12455 35.2592 14.3234 32.725C18.7201 30.5835 22.2948 30.8264 22.2948 30.8264ZM38.8083 40.1277C48.3111 35.1518 43.9174 30.3701 40.8507 31.0144C40.099 31.1719 39.7639 31.3085 39.7639 31.3085C39.7639 31.3085 40.0429 30.8681 40.5759 30.6775C46.6427 28.5281 51.3086 37.0166 38.6174 40.3785C38.6174 40.3786 38.7645 40.2462 38.8083 40.1277Z" fill="#5382A1"/>
<path id="Vector_4" d="M33.5524 2.33348C33.5524 2.33348 39.1946 7.63856 28.201 15.7958C19.3853 22.3395 26.1907 26.0705 28.1973 30.3333C23.0514 25.9696 19.2749 22.1281 21.8086 18.5528C25.5271 13.3043 35.8288 10.76 33.5524 2.33348Z" fill="#E76F00"/>
<path id="Vector_5" d="M23.427 53.5118C32.4628 54.0796 46.3382 53.1968 46.6668 49C46.6668 49 46.0352 50.5911 39.1992 51.8545C31.487 53.2791 21.9752 53.1128 16.3335 52.1998C16.3336 52.1998 17.4883 53.1381 23.427 53.5118Z" fill="#5382A1"/>
</g>
</g>
</svg>
