<svg width="56" height="56" viewBox="0 0 56 56" fill="none" xmlns="http://www.w3.org/2000/svg">
<path d="M23.0065 4.66666C21.2366 4.66666 19.5392 5.36975 18.2877 6.62124C17.0363 7.87273 16.3332 9.57012 16.3332 11.34V15.26H26.3432C27.2532 15.26 27.9998 16.59 27.9998 17.5H11.3398C9.56996 17.5 7.87257 18.2031 6.62108 19.4546C5.36959 20.7061 4.6665 22.4035 4.6665 24.1733V32.9957C4.6665 34.7655 5.36959 36.4629 6.62108 37.7144C7.87257 38.9659 9.56996 39.669 11.3398 39.669H14.0932V33.4157C14.0901 32.5404 14.2598 31.6732 14.5927 30.8637C14.9255 30.0541 15.4148 29.3183 16.0326 28.6983C16.6505 28.0783 17.3846 27.5864 18.1929 27.2508C19.0013 26.9151 19.8679 26.7423 20.7432 26.7423H32.9932C36.6798 26.7423 39.6665 23.7767 39.6665 20.09V11.34C39.6665 9.57012 38.9634 7.87273 37.7119 6.62124C36.4604 5.36975 34.763 4.66666 32.9932 4.66666H23.0065ZM21.3265 8.42333C22.2598 8.42333 23.0065 8.70333 23.0065 10.08C23.0065 11.4567 22.2598 12.159 21.3265 12.159C20.4165 12.159 19.6698 11.459 19.6698 10.0823C19.6698 8.70566 20.4165 8.42333 21.3265 8.42333Z" fill="#0288D1"/>
<path d="M41.9045 16.3333V22.5867C41.9073 23.4617 41.7373 24.3287 41.4043 25.138C41.0714 25.9472 40.582 26.6828 39.9642 27.3025C39.3464 27.9222 38.6124 28.414 37.8042 28.7495C36.996 29.085 36.1296 29.2577 35.2545 29.2577H23.0068C22.1316 29.2546 21.2643 29.4243 20.4548 29.7572C19.6453 30.09 18.9095 30.5793 18.2895 31.1971C17.6695 31.815 17.1776 32.5491 16.8419 33.3574C16.5063 34.1658 16.3335 35.0324 16.3335 35.9077V44.6577C16.3335 46.4275 17.0366 48.1249 18.2881 49.3764C19.5396 50.6279 21.237 51.331 23.0068 51.331H32.9935C34.763 51.331 36.46 50.6282 37.7114 49.3773C38.9629 48.1263 39.6662 46.4295 39.6668 44.66V40.74H29.6545C28.7445 40.74 28.0002 39.41 28.0002 38.5H44.6602C46.43 38.5 48.1274 37.7969 49.3789 36.5454C50.6304 35.2939 51.3335 33.5965 51.3335 31.8267V23.0067C51.3335 21.2368 50.6304 19.5394 49.3789 18.2879C48.1274 17.0364 46.43 16.3333 44.6602 16.3333H41.9045ZM19.4135 26.8637L19.4042 26.873L19.4928 26.8637H19.4135ZM34.6735 43.841C35.5835 43.841 36.3302 44.541 36.3302 45.9177C36.3302 46.1352 36.2873 46.3507 36.2041 46.5516C36.1208 46.7526 35.9988 46.9353 35.8449 47.0891C35.6911 47.2429 35.5085 47.365 35.3075 47.4482C35.1065 47.5315 34.8911 47.5743 34.6735 47.5743C33.7402 47.5743 32.9935 47.2943 32.9935 45.9177C32.9935 44.541 33.7402 43.841 34.6735 43.841Z" fill="#FDD835"/>
</svg>
