<svg width="25" height="27" viewBox="0 0 25 27" fill="none" xmlns="http://www.w3.org/2000/svg">
<path d="M9.55239 0C11.0289 0 12.5055 0 13.9814 0C14.0564 0.0132236 14.1314 0.031319 14.207 0.0382787C15.3506 0.145459 16.4982 0.221321 17.6383 0.3633C20.1387 0.674401 22.271 2.64262 22.7739 5.14048C22.9425 5.97635 23.0017 6.84284 23.0306 7.6982C23.1083 10.0311 23.1427 12.3654 23.1929 14.6997C23.1943 14.7624 23.1792 14.8257 23.1709 14.8995C19.7816 12.7976 15.9932 13.8437 13.9662 16.0785C12.6486 17.531 11.9826 19.241 12.0108 21.2155C12.0397 23.1941 12.7855 24.8777 14.1231 26.3358C13.519 26.3692 12.9293 26.3629 12.3404 26.3706C10.0306 26.4026 7.72562 26.3539 5.43511 26.001C2.78062 25.5918 0.562354 23.2394 0.333234 20.5452C0.222458 19.2403 0.10893 17.9332 0.0655831 16.6248C-0.0534492 13.0489 -0.0328078 9.47572 0.316033 5.90815C0.556161 3.44926 2.34509 1.03979 5.03192 0.4844C6.01101 0.281871 7.019 0.217145 8.01529 0.10718C8.52514 0.0508063 9.0398 0.0347988 9.55239 0ZM11.6062 6.93262C10.7654 6.93262 9.92463 6.93262 9.08383 6.93262C8.05451 6.93262 7.0245 6.92358 5.99518 6.9361C5.10622 6.94654 4.52414 7.80677 4.83513 8.62246C5.02985 9.134 5.48052 9.42213 6.09908 9.42213C9.76225 9.42283 13.4254 9.42213 17.0893 9.42213C17.1491 9.42213 17.2097 9.42283 17.2695 9.41865C18.0567 9.36297 18.5823 8.66073 18.4131 7.89307C18.2851 7.31263 17.7904 6.93402 17.1409 6.93332C15.2962 6.93054 13.4516 6.93262 11.6076 6.93262H11.6062ZM9.22213 12.2443C8.18455 12.2443 7.14629 12.2408 6.10871 12.2478C5.93188 12.2492 5.74611 12.2708 5.5796 12.3285C5.03054 12.5185 4.69477 13.1032 4.78903 13.6655C4.89706 14.3086 5.38213 14.7297 6.05229 14.731C8.15359 14.7366 10.2556 14.7345 12.3569 14.7297C12.5082 14.7297 12.6665 14.7025 12.8103 14.6545C13.3821 14.4645 13.7089 13.9014 13.6208 13.2813C13.5383 12.6974 13.0298 12.2513 12.4126 12.2471C11.3489 12.2394 10.2859 12.245 9.22213 12.2443Z" fill="white"/>
<path d="M24.7659 21.1116C24.7604 24.1752 22.2807 26.6773 19.2561 26.671C16.1825 26.6648 13.7269 24.1641 13.731 21.0447C13.7345 18.0117 16.2259 15.5131 19.2464 15.5152C22.3131 15.5173 24.7715 18.0089 24.7659 21.1116ZM19.7989 20.5798C19.7989 20.4566 19.7989 20.3627 19.7989 20.2687C19.7989 19.4363 19.8003 18.604 19.7982 17.7716C19.7969 17.3185 19.545 17.0269 19.157 17.0192C18.7614 17.0116 18.4896 17.2899 18.4868 17.7409C18.4793 18.8858 18.4793 20.03 18.4868 21.1749C18.4896 21.6502 18.738 21.9008 19.2038 21.9071C19.9235 21.9161 20.6438 21.9147 21.3642 21.9071C21.808 21.9029 22.0943 21.6308 22.0915 21.2389C22.0888 20.8506 21.7922 20.5826 21.3539 20.5805C20.8489 20.5777 20.3439 20.5805 19.7996 20.5805L19.7989 20.5798Z" fill="white"/>
</svg>
