<svg width="32" height="33" viewBox="0 0 32 33" fill="none" xmlns="http://www.w3.org/2000/svg">
<g filter="url(#filter0_dii_20839_282)">
<path d="M18.3026 5.18002L20.6493 9.87335C20.9693 10.5267 21.8226 11.1534 22.5426 11.2734L26.796 11.98C29.516 12.4334 30.156 14.4067 28.196 16.3534L24.8893 19.66C24.3293 20.22 24.0226 21.3 24.196 22.0734L25.1426 26.1667C25.8893 29.4067 24.1693 30.66 21.3026 28.9667L17.316 26.6067C16.596 26.18 15.4093 26.18 14.676 26.6067L10.6893 28.9667C7.83597 30.66 6.10264 29.3934 6.84931 26.1667L7.79597 22.0734C7.96931 21.3 7.66264 20.22 7.10264 19.66L3.79597 16.3534C1.84931 14.4067 2.47597 12.4334 5.19597 11.98L9.44931 11.2734C10.156 11.1534 11.0093 10.5267 11.3293 9.87335L13.676 5.18002C14.956 2.63335 17.036 2.63335 18.3026 5.18002Z" fill="#BF7CF0"/>
<path d="M18.3026 5.18002L20.6493 9.87335C20.9693 10.5267 21.8226 11.1534 22.5426 11.2734L26.796 11.98C29.516 12.4334 30.156 14.4067 28.196 16.3534L24.8893 19.66C24.3293 20.22 24.0226 21.3 24.196 22.0734L25.1426 26.1667C25.8893 29.4067 24.1693 30.66 21.3026 28.9667L17.316 26.6067C16.596 26.18 15.4093 26.18 14.676 26.6067L10.6893 28.9667C7.83597 30.66 6.10264 29.3934 6.84931 26.1667L7.79597 22.0734C7.96931 21.3 7.66264 20.22 7.10264 19.66L3.79597 16.3534C1.84931 14.4067 2.47597 12.4334 5.19597 11.98L9.44931 11.2734C10.156 11.1534 11.0093 10.5267 11.3293 9.87335L13.676 5.18002C14.956 2.63335 17.036 2.63335 18.3026 5.18002Z" fill="url(#paint0_radial_20839_282)"/>
<path d="M18.3026 5.18002L20.6493 9.87335C20.9693 10.5267 21.8226 11.1534 22.5426 11.2734L26.796 11.98C29.516 12.4334 30.156 14.4067 28.196 16.3534L24.8893 19.66C24.3293 20.22 24.0226 21.3 24.196 22.0734L25.1426 26.1667C25.8893 29.4067 24.1693 30.66 21.3026 28.9667L17.316 26.6067C16.596 26.18 15.4093 26.18 14.676 26.6067L10.6893 28.9667C7.83597 30.66 6.10264 29.3934 6.84931 26.1667L7.79597 22.0734C7.96931 21.3 7.66264 20.22 7.10264 19.66L3.79597 16.3534C1.84931 14.4067 2.47597 12.4334 5.19597 11.98L9.44931 11.2734C10.156 11.1534 11.0093 10.5267 11.3293 9.87335L13.676 5.18002C14.956 2.63335 17.036 2.63335 18.3026 5.18002Z" stroke="url(#paint1_linear_20839_282)" stroke-linecap="round" stroke-linejoin="round"/>
</g>
<g filter="url(#filter1_f_20839_282)">
<circle cx="24.0054" cy="15.1684" r="1.33348" fill="white" fill-opacity="0.58"/>
</g>
<g filter="url(#filter2_f_20839_282)">
<circle cx="0.666742" cy="0.666742" r="0.666742" transform="matrix(1 0 0 -1 18.668 12.5015)" fill="white" fill-opacity="0.58"/>
</g>
<path d="M23.4725 15.9682C23.4801 16.0281 23.4725 16.088 23.4499 16.1479C23.4349 16.2003 23.416 16.2528 23.3934 16.3052C23.3482 16.3052 23.3105 16.3089 23.2804 16.3164C23.2502 16.3314 23.2389 16.3576 23.2465 16.395C23.2615 16.4325 23.2578 16.4662 23.2352 16.4961C23.2201 16.5261 23.205 16.5597 23.19 16.5972C23.1749 16.6346 23.1598 16.6646 23.1447 16.687C23.1372 16.7394 23.1485 16.7806 23.1787 16.8106C23.2163 16.8405 23.2352 16.878 23.2352 16.9229C23.2427 16.9528 23.2389 16.9828 23.2239 17.0127C23.2163 17.0352 23.205 17.0614 23.19 17.0914C23.1749 17.1213 23.156 17.1475 23.1334 17.17C23.1184 17.1925 23.1033 17.2187 23.0882 17.2486C23.0656 17.286 23.0392 17.3272 23.0091 17.3722C22.9865 17.4171 22.9639 17.4583 22.9413 17.4957C22.9111 17.5257 22.8735 17.5556 22.8282 17.5856C22.7906 17.6155 22.7529 17.6455 22.7152 17.6754C22.7001 17.6979 22.6851 17.7241 22.67 17.754C22.6549 17.7765 22.6399 17.8064 22.6248 17.8439C22.5042 17.9412 22.3836 18.0386 22.2631 18.1359C22.1425 18.2332 22.0182 18.3231 21.8901 18.4055C21.7996 18.4354 21.7054 18.4616 21.6075 18.4841C21.5095 18.4991 21.4116 18.514 21.3136 18.529C21.2382 18.5365 21.1629 18.5477 21.0875 18.5627C21.0122 18.5777 20.933 18.5964 20.8502 18.6189C20.8049 18.6263 20.7597 18.6338 20.7145 18.6413C20.6693 18.6413 20.6165 18.6413 20.5563 18.6413C20.4583 18.6488 20.3603 18.6563 20.2624 18.6638C20.1719 18.6638 20.0853 18.6638 20.0024 18.6638C19.912 18.7012 19.863 18.7461 19.8555 18.7986C19.8479 18.8435 19.8366 18.8884 19.8215 18.9333C19.8065 18.9783 19.7914 19.0232 19.7763 19.0681C19.7763 19.1655 19.7688 19.2665 19.7537 19.3714C19.7462 19.4762 19.7462 19.5773 19.7537 19.6746C19.7537 19.7121 19.75 19.7383 19.7424 19.7532C19.7424 19.7982 19.7386 19.8468 19.7311 19.8992C19.7311 19.9442 19.7311 19.9891 19.7311 20.034C19.7311 20.0789 19.7311 20.1239 19.7311 20.1688C19.7386 20.2062 19.7462 20.2437 19.7537 20.2811C19.7763 20.4234 19.7575 20.5656 19.6972 20.7079C19.6972 20.7454 19.6897 20.779 19.6746 20.809C19.652 20.8689 19.6105 20.8914 19.5503 20.8764C19.4372 20.8389 19.3242 20.8165 19.2112 20.809C19.1057 20.809 18.9926 20.8165 18.8721 20.8315H18.7251C18.6196 20.8839 18.5103 20.9176 18.3973 20.9325C18.2843 20.9475 18.1675 20.9587 18.0469 20.9662C17.9791 20.9662 17.9376 20.9438 17.9226 20.8988C17.9226 20.8988 17.9188 20.8951 17.9113 20.8876C17.9113 20.8876 17.9113 20.8839 17.9113 20.8764C17.8962 20.6892 17.8774 20.4983 17.8547 20.3036C17.8321 20.1089 17.8246 19.918 17.8321 19.7308C17.8321 19.6933 17.8284 19.6559 17.8208 19.6185C17.8208 19.581 17.8171 19.5473 17.8095 19.5174C17.7945 19.435 17.7832 19.3526 17.7756 19.2703C17.7681 19.1804 17.7606 19.0943 17.753 19.012C17.753 18.982 17.753 18.9521 17.753 18.9221C17.753 18.8922 17.7455 18.8622 17.7304 18.8323C17.7003 18.7724 17.6852 18.7087 17.6852 18.6413C17.6927 18.5739 17.6965 18.514 17.6965 18.4616C17.7191 18.4092 17.7342 18.368 17.7417 18.3381C17.7492 18.3006 17.7568 18.2594 17.7643 18.2145C17.7417 18.1846 17.7304 18.1584 17.7304 18.1359C17.7379 18.1059 17.7342 18.0797 17.7191 18.0573C17.7191 18.0423 17.7153 18.0311 17.7078 18.0236C17.7003 18.0086 17.6965 17.9974 17.6965 17.9899C17.689 17.8027 17.6814 17.5893 17.6739 17.3497C17.6739 17.1101 17.6739 16.8855 17.6739 16.6758C17.6814 16.4661 17.689 16.3164 17.6965 16.2265C17.7116 16.1966 17.7266 16.1704 17.7417 16.1479C17.7643 16.1255 17.7794 16.103 17.7869 16.0805C17.7869 16.0581 17.7794 16.0431 17.7643 16.0356C17.7492 16.0206 17.7342 16.0094 17.7191 16.0019C17.7342 15.9345 17.7492 15.8671 17.7643 15.7997C17.7869 15.7324 17.8058 15.665 17.8208 15.5976C17.8133 15.5601 17.8058 15.5264 17.7982 15.4965C17.7907 15.4665 17.7794 15.4366 17.7643 15.4066C17.7869 15.3542 17.8095 15.2943 17.8321 15.2269C17.8246 15.167 17.8171 15.0997 17.8095 15.0248C17.8095 14.9499 17.802 14.8713 17.7869 14.7889C17.802 14.7664 17.8133 14.7365 17.8208 14.6991C17.8284 14.6541 17.8397 14.613 17.8547 14.5755C17.8698 14.5381 17.8698 14.5006 17.8547 14.4632C17.8472 14.4258 17.8547 14.3921 17.8774 14.3621C17.9226 14.3471 17.9602 14.3434 17.9904 14.3509C18.0055 14.3584 18.0243 14.3696 18.0469 14.3846C18.0695 14.3921 18.0884 14.3996 18.1034 14.407H18.1825C18.273 14.3771 18.3634 14.3509 18.4538 14.3284C18.5518 14.2985 18.6422 14.2648 18.7251 14.2273C18.7779 14.1974 18.8381 14.1899 18.906 14.2049C18.9512 14.2124 18.9926 14.2199 19.0303 14.2273C19.0755 14.2273 19.117 14.2199 19.1546 14.2049C19.2074 14.1974 19.2564 14.1936 19.3016 14.1936C19.3543 14.1862 19.4071 14.1824 19.4598 14.1824C19.603 14.1824 19.7462 14.1712 19.8894 14.1487C20.0325 14.1263 20.1757 14.1 20.3189 14.0701C20.3792 14.0476 20.4432 14.0401 20.511 14.0476C20.5789 14.0551 20.6429 14.0551 20.7032 14.0476C20.756 14.0626 20.8087 14.0813 20.8615 14.1038C20.9142 14.1188 20.967 14.1337 21.0197 14.1487C21.0725 14.1637 21.1252 14.1787 21.1779 14.1936C21.2307 14.2011 21.291 14.2124 21.3588 14.2273C21.4718 14.1974 21.5924 14.1862 21.7205 14.1936C21.8486 14.1936 21.973 14.1974 22.0935 14.2049C22.1613 14.2124 22.2254 14.2273 22.2857 14.2498C22.3535 14.2723 22.4138 14.3022 22.4665 14.3397C22.5419 14.3696 22.6248 14.4183 22.7152 14.4857C22.7529 14.5156 22.7868 14.5493 22.8169 14.5867C22.8546 14.6167 22.8885 14.6504 22.9187 14.6878C22.9337 14.6953 22.945 14.7103 22.9526 14.7328C22.9601 14.7477 22.9677 14.7627 22.9752 14.7777C22.9903 14.8301 23.0166 14.8713 23.0543 14.9012C23.092 14.9312 23.1259 14.9649 23.156 15.0023C23.2917 15.2045 23.3595 15.4366 23.3595 15.6987C23.3746 15.7436 23.3934 15.7923 23.416 15.8447C23.4386 15.8896 23.4575 15.9308 23.4725 15.9682ZM21.6527 16.1255C21.6452 16.0805 21.6301 16.0356 21.6075 15.9907C21.5924 15.9458 21.5773 15.9008 21.5623 15.8559C21.5547 15.8334 21.5434 15.8147 21.5284 15.7997C21.5208 15.7848 21.5133 15.7735 21.5057 15.7661C21.4907 15.7286 21.4605 15.7174 21.4153 15.7324C21.4002 15.7473 21.3852 15.7586 21.3701 15.7661C21.355 15.7735 21.34 15.7848 21.3249 15.7997C21.2872 15.8072 21.2495 15.8147 21.2119 15.8222C21.1817 15.8222 21.1478 15.826 21.1101 15.8334H20.9745C20.9519 15.8185 20.9255 15.8035 20.8954 15.7885C20.8728 15.7661 20.8426 15.7436 20.8049 15.7211C20.7522 15.7136 20.6919 15.7099 20.6241 15.7099C20.5638 15.7024 20.5035 15.7024 20.4432 15.7099C20.3001 15.7398 20.187 15.796 20.1041 15.8784C20.0589 15.8634 20.0212 15.8559 19.9911 15.8559C19.9685 15.8409 19.9459 15.8372 19.9233 15.8447C19.9007 15.8522 19.8781 15.8559 19.8555 15.8559C19.8102 15.8784 19.7688 15.9046 19.7311 15.9345C19.6934 15.9645 19.6633 16.0057 19.6407 16.0581C19.6332 16.088 19.6218 16.1217 19.6068 16.1592C19.5992 16.1891 19.5955 16.2228 19.5955 16.2602C19.5879 16.3351 19.5804 16.4137 19.5729 16.4961C19.5729 16.571 19.5691 16.6496 19.5616 16.732C19.5616 16.7769 19.5578 16.8256 19.5503 16.878C19.5503 16.9229 19.554 16.9678 19.5616 17.0127C19.5616 17.0202 19.5653 17.0352 19.5729 17.0577C19.5804 17.0801 19.5879 17.0989 19.5955 17.1138C19.701 17.0989 19.7989 17.0914 19.8894 17.0914C19.9798 17.0839 20.0664 17.0876 20.1493 17.1026C20.2322 17.1251 20.3151 17.14 20.398 17.1475C20.4884 17.155 20.5713 17.17 20.6467 17.1925C20.6844 17.1999 20.7296 17.1962 20.7823 17.1812C20.8275 17.1438 20.869 17.1063 20.9067 17.0689C20.9519 17.0315 20.9971 16.994 21.0423 16.9566C21.08 16.9491 21.1139 16.9454 21.144 16.9454C21.1817 16.9379 21.2156 16.9304 21.2458 16.9229C21.291 16.8855 21.3362 16.848 21.3814 16.8106C21.4266 16.7657 21.4681 16.7245 21.5057 16.687C21.5208 16.6346 21.5321 16.586 21.5397 16.541C21.5547 16.4961 21.566 16.4474 21.5736 16.395C21.5886 16.3501 21.6037 16.3089 21.6188 16.2715C21.6414 16.2265 21.6527 16.1779 21.6527 16.1255Z" fill="#350946"/>
<path d="M16.7633 20.0343C16.7784 20.0567 16.7822 20.0829 16.7746 20.1129C16.7671 20.1353 16.7558 20.1578 16.7407 20.1803C16.7181 20.1952 16.6955 20.2177 16.6729 20.2477C16.6503 20.2701 16.6239 20.2888 16.5938 20.3038C16.5486 20.3338 16.5034 20.3675 16.4582 20.4049C16.4129 20.4423 16.3677 20.4798 16.3225 20.5172C16.2245 20.5921 16.1379 20.667 16.0625 20.7418C15.9947 20.8092 15.9118 20.9028 15.8139 21.0226C15.7988 21.0376 15.7799 21.0526 15.7573 21.0676C15.7423 21.09 15.7234 21.1087 15.7008 21.1237C15.6933 21.1312 15.6782 21.1387 15.6556 21.1462C15.6405 21.1537 15.6255 21.1612 15.6104 21.1686C15.6029 21.1612 15.5916 21.1537 15.5765 21.1462C15.5614 21.1462 15.5463 21.1424 15.5313 21.1349C15.471 21.075 15.4069 21.0151 15.3391 20.9552C15.2788 20.8953 15.2148 20.8392 15.147 20.7868C15.049 20.7194 14.9623 20.6445 14.887 20.5621C14.8116 20.4723 14.7325 20.3862 14.6496 20.3038C14.627 20.2814 14.6082 20.2551 14.5931 20.2252C14.5856 20.1878 14.5743 20.1541 14.5592 20.1241C14.529 20.1091 14.4951 20.0942 14.4574 20.0792C14.4273 20.0567 14.3972 20.0343 14.367 20.0118C14.3369 19.9818 14.3067 19.9482 14.2766 19.9107C14.254 19.8733 14.2314 19.8358 14.2088 19.7984C14.1711 19.7385 14.1334 19.6823 14.0957 19.6299C14.0581 19.5775 14.0128 19.5251 13.9601 19.4727C13.93 19.4352 13.9073 19.3941 13.8923 19.3491C13.8772 19.3042 13.8471 19.2668 13.8018 19.2368C13.7566 19.2218 13.7077 19.2106 13.6549 19.2031C13.6022 19.1882 13.5532 19.1769 13.508 19.1694C13.4401 19.1844 13.3874 19.2331 13.3497 19.3154C13.2518 19.5251 13.0897 19.6973 12.8637 19.8321C12.8034 19.8695 12.7506 19.9182 12.7054 19.9781C12.6602 20.038 12.6075 20.0979 12.5472 20.1578C12.4567 20.3001 12.3475 20.4236 12.2194 20.5284C12.0988 20.6333 11.9632 20.7306 11.8125 20.8205C11.7898 20.8429 11.7635 20.8654 11.7333 20.8879C11.7032 20.9103 11.6693 20.9365 11.6316 20.9665L11.2812 21.0788C11.1606 21.0264 11.0589 20.9515 10.976 20.8542C10.9006 20.7568 10.8102 20.6819 10.7047 20.6295C10.6444 20.5397 10.5955 20.4498 10.5578 20.36C10.5201 20.2701 10.49 20.1803 10.4673 20.0904C10.505 20.0081 10.5389 19.9332 10.5691 19.8658C10.6068 19.7984 10.6482 19.7422 10.6934 19.6973C10.7838 19.6299 10.8404 19.5476 10.863 19.4502C10.9006 19.4053 10.9308 19.3566 10.9534 19.3042C10.9835 19.2892 11.0061 19.2817 11.0212 19.2817C11.0438 19.2817 11.0664 19.278 11.089 19.2705C11.1418 19.2555 11.1682 19.2293 11.1682 19.1919C11.1682 19.147 11.1832 19.117 11.2134 19.102C11.2435 19.0796 11.2737 19.0646 11.3038 19.0571C11.3264 19.0496 11.3452 19.0496 11.3603 19.0571C11.3829 19.0571 11.4055 19.0534 11.4281 19.0459C11.4357 19.0309 11.4432 19.0197 11.4507 19.0122C11.4583 18.9972 11.462 18.986 11.462 18.9785C11.462 18.9336 11.4658 18.8924 11.4733 18.855C11.4809 18.81 11.5035 18.7726 11.5412 18.7426C11.5412 18.6603 11.5638 18.6004 11.609 18.5629C11.6617 18.5255 11.7183 18.4843 11.7785 18.4394C11.8011 18.3795 11.8238 18.3196 11.8464 18.2597C11.869 18.1998 11.8878 18.1511 11.9029 18.1137C11.933 18.0388 11.9745 17.9864 12.0272 17.9564C12.08 17.9265 12.1101 17.8816 12.1176 17.8217C12.1101 17.8142 12.1063 17.8029 12.1063 17.788C12.0687 17.7505 12.0272 17.7131 11.982 17.6756C11.9443 17.6307 11.9066 17.5858 11.869 17.5409C11.8313 17.4959 11.7974 17.451 11.7672 17.4061C11.7371 17.3537 11.6994 17.3087 11.6542 17.2713C11.6241 17.2414 11.6015 17.2002 11.5864 17.1478C11.5713 17.0954 11.5487 17.0617 11.5186 17.0467C11.496 17.0242 11.4658 17.0055 11.4281 16.9905C11.4206 16.9531 11.4093 16.9194 11.3942 16.8894C11.3867 16.8595 11.3792 16.8258 11.3716 16.7884C11.3641 16.7809 11.3528 16.7734 11.3377 16.7659C11.3226 16.7509 11.3076 16.7397 11.2925 16.7322C11.2171 16.6948 11.1493 16.6461 11.089 16.5862C11.0287 16.5188 10.9685 16.4589 10.9082 16.4065C10.878 16.384 10.8554 16.3578 10.8404 16.3279C10.7951 16.223 10.7349 16.1332 10.6595 16.0583C10.5841 15.9759 10.505 15.8898 10.4221 15.8C10.3845 15.7326 10.3468 15.6615 10.3091 15.5866C10.2714 15.5042 10.2375 15.4219 10.2074 15.3395C10.1772 15.2796 10.1433 15.2197 10.1056 15.1598C10.0755 15.0924 10.0491 15.025 10.0265 14.9576C10.0114 14.9426 10.0039 14.909 10.0039 14.8565C10.0642 14.7742 10.1358 14.7105 10.2187 14.6656C10.3016 14.6132 10.3656 14.5458 10.4108 14.4634C10.456 14.4559 10.4975 14.4559 10.5352 14.4634C10.5804 14.4709 10.6181 14.4597 10.6482 14.4297C10.6708 14.4073 10.7047 14.396 10.7499 14.396C10.8479 14.3736 10.9459 14.3474 11.0438 14.3174C11.1418 14.28 11.2397 14.2538 11.3377 14.2388C11.3528 14.2313 11.3716 14.2238 11.3942 14.2163C11.4168 14.2089 11.4357 14.2051 11.4507 14.2051C11.5562 14.1901 11.6391 14.2126 11.6994 14.2725C11.7145 14.2875 11.7296 14.3025 11.7446 14.3174C11.7672 14.3249 11.7823 14.3361 11.7898 14.3511C11.8426 14.426 11.8991 14.4934 11.9594 14.5533C12.0272 14.6057 12.095 14.6544 12.1629 14.6993C12.2156 14.8116 12.2495 14.8865 12.2646 14.9239C12.2797 14.9614 12.2985 14.9913 12.3211 15.0138C12.3437 15.0288 12.3889 15.0587 12.4567 15.1036C12.4643 15.1111 12.4718 15.1224 12.4794 15.1373C12.4869 15.1448 12.4907 15.156 12.4907 15.171C12.5133 15.2833 12.5773 15.3507 12.6828 15.3732C12.728 15.3882 12.7544 15.3956 12.7619 15.3956C12.7996 15.4256 12.8185 15.4668 12.8185 15.5192C12.826 15.5641 12.8561 15.6053 12.9089 15.6427C12.9541 15.6427 12.9918 15.6577 13.0219 15.6877C13.0445 15.6952 13.0634 15.7026 13.0784 15.7101C13.101 15.7101 13.1161 15.7101 13.1236 15.7101C13.1915 15.7625 13.2329 15.8299 13.248 15.9123C13.2706 15.9872 13.312 16.0471 13.3723 16.092H13.4288C13.4891 16.0695 13.5494 16.0471 13.6097 16.0246C13.67 16.0022 13.7303 15.9797 13.7905 15.9572C13.8207 15.9198 13.8471 15.8823 13.8697 15.8449C13.8923 15.8075 13.9187 15.77 13.9488 15.7326C13.9865 15.6727 14.0279 15.6128 14.0731 15.5529C14.1183 15.4855 14.1636 15.4256 14.2088 15.3732C14.254 15.3133 14.2879 15.2496 14.3105 15.1823C14.3331 15.1149 14.3633 15.055 14.4009 15.0025C14.4386 14.9426 14.4763 14.8902 14.514 14.8453C14.5592 14.7929 14.6082 14.7367 14.6609 14.6768C14.7137 14.5196 14.789 14.3698 14.887 14.2276C14.9925 14.0853 15.113 13.9543 15.2487 13.8345C15.3316 13.8644 15.4069 13.8906 15.4748 13.9131C15.5426 13.9356 15.6104 13.9693 15.6782 14.0142C15.7611 14.0891 15.8741 14.1452 16.0173 14.1826C16.055 14.1901 16.0889 14.2014 16.119 14.2163C16.1492 14.2313 16.1793 14.2425 16.2095 14.25C16.2622 14.295 16.2961 14.3399 16.3112 14.3848C16.3338 14.4297 16.3527 14.4784 16.3677 14.5308C16.3828 14.5383 16.3979 14.5458 16.4129 14.5533C16.4355 14.5608 16.4544 14.5683 16.4695 14.5758C16.4845 14.6057 16.4996 14.6394 16.5147 14.6768C16.5373 14.7068 16.5561 14.7405 16.5712 14.7779C16.5938 14.8079 16.6202 14.8378 16.6503 14.8678C16.688 14.8902 16.7106 14.9239 16.7181 14.9689C16.7106 15.0063 16.6955 15.0475 16.6729 15.0924C16.6578 15.1298 16.6428 15.1673 16.6277 15.2047V15.4406C16.5976 15.493 16.5599 15.5304 16.5147 15.5529C16.477 15.5679 16.4393 15.5866 16.4016 15.609C16.3941 15.624 16.3828 15.639 16.3677 15.654C16.3602 15.6615 16.3489 15.6727 16.3338 15.6877C16.2886 15.77 16.2396 15.8487 16.1869 15.9235C16.1417 15.9984 16.0851 16.0733 16.0173 16.1482C15.9721 16.2006 15.9307 16.2567 15.893 16.3166C15.8553 16.3765 15.8139 16.4364 15.7686 16.4963V16.6311C15.7385 16.6611 15.7046 16.6948 15.6669 16.7322C15.6368 16.7621 15.6104 16.7996 15.5878 16.8445C15.5576 16.8894 15.5237 16.9269 15.4861 16.9568C15.4484 16.9868 15.422 17.028 15.4069 17.0804C15.3843 17.1328 15.3504 17.174 15.3052 17.2039C15.26 17.2264 15.2223 17.2751 15.1922 17.3499C15.1846 17.3799 15.1771 17.4173 15.1696 17.4622C15.1696 17.5072 15.162 17.5558 15.147 17.6083C15.3278 17.8404 15.4861 18.0875 15.6217 18.3495V18.4843C15.6594 18.5217 15.6933 18.5554 15.7234 18.5854C15.7611 18.6153 15.7912 18.6453 15.8139 18.6752C15.957 18.855 16.1077 19.0122 16.266 19.147C16.2961 19.1769 16.3225 19.2106 16.3451 19.2481C16.3753 19.278 16.3903 19.3154 16.3903 19.3604C16.3979 19.3903 16.4129 19.4203 16.4355 19.4502C16.4582 19.4802 16.4732 19.5064 16.4808 19.5288C16.541 19.6037 16.59 19.6861 16.6277 19.7759C16.6654 19.8658 16.7106 19.9519 16.7633 20.0343Z" fill="#350946"/>
<defs>
<filter id="filter0_dii_20839_282" x="1.16406" y="1.77002" width="29.6719" height="29.4521" filterUnits="userSpaceOnUse" color-interpolation-filters="sRGB">
<feFlood flood-opacity="0" result="BackgroundImageFix"/>
<feColorMatrix in="SourceAlpha" type="matrix" values="0 0 0 0 0 0 0 0 0 0 0 0 0 0 0 0 0 0 127 0" result="hardAlpha"/>
<feOffset dx="1" dy="1"/>
<feComposite in2="hardAlpha" operator="out"/>
<feColorMatrix type="matrix" values="0 0 0 0 0.114695 0 0 0 0 0.02265 0 0 0 0 0.15735 0 0 0 0.4 0"/>
<feBlend mode="normal" in2="BackgroundImageFix" result="effect1_dropShadow_20839_282"/>
<feBlend mode="normal" in="SourceGraphic" in2="effect1_dropShadow_20839_282" result="shape"/>
<feColorMatrix in="SourceAlpha" type="matrix" values="0 0 0 0 0 0 0 0 0 0 0 0 0 0 0 0 0 0 127 0" result="hardAlpha"/>
<feOffset dx="-1" dy="-1"/>
<feGaussianBlur stdDeviation="0.5"/>
<feComposite in2="hardAlpha" operator="arithmetic" k2="-1" k3="1"/>
<feColorMatrix type="matrix" values="0 0 0 0 0 0 0 0 0 0 0 0 0 0 0 0 0 0 0.56 0"/>
<feBlend mode="normal" in2="shape" result="effect2_innerShadow_20839_282"/>
<feColorMatrix in="SourceAlpha" type="matrix" values="0 0 0 0 0 0 0 0 0 0 0 0 0 0 0 0 0 0 127 0" result="hardAlpha"/>
<feOffset dx="1" dy="1"/>
<feGaussianBlur stdDeviation="0.5"/>
<feComposite in2="hardAlpha" operator="arithmetic" k2="-1" k3="1"/>
<feColorMatrix type="matrix" values="0 0 0 0 1 0 0 0 0 1 0 0 0 0 1 0 0 0 0.56 0"/>
<feBlend mode="normal" in2="effect2_innerShadow_20839_282" result="effect3_innerShadow_20839_282"/>
</filter>
<filter id="filter1_f_20839_282" x="21.6719" y="12.835" width="4.66797" height="4.66699" filterUnits="userSpaceOnUse" color-interpolation-filters="sRGB">
<feFlood flood-opacity="0" result="BackgroundImageFix"/>
<feBlend mode="normal" in="SourceGraphic" in2="BackgroundImageFix" result="shape"/>
<feGaussianBlur stdDeviation="0.5" result="effect1_foregroundBlur_20839_282"/>
</filter>
<filter id="filter2_f_20839_282" x="17.668" y="10.168" width="3.33203" height="3.3335" filterUnits="userSpaceOnUse" color-interpolation-filters="sRGB">
<feFlood flood-opacity="0" result="BackgroundImageFix"/>
<feBlend mode="normal" in="SourceGraphic" in2="BackgroundImageFix" result="shape"/>
<feGaussianBlur stdDeviation="0.5" result="effect1_foregroundBlur_20839_282"/>
</filter>
<radialGradient id="paint0_radial_20839_282" cx="0" cy="0" r="1" gradientUnits="userSpaceOnUse" gradientTransform="translate(15.9989 16.4955) rotate(90) scale(13.3413 13.4516)">
<stop stop-color="white" stop-opacity="0.6"/>
<stop offset="0.65" stop-color="white" stop-opacity="0"/>
</radialGradient>
<linearGradient id="paint1_linear_20839_282" x1="7.33126" y1="3.16714" x2="23.3331" y2="33.8373" gradientUnits="userSpaceOnUse">
<stop stop-color="#B545E1"/>
<stop offset="0.515" stop-color="#4C1163"/>
<stop offset="1" stop-color="#B545E1"/>
</linearGradient>
</defs>
</svg>
